<?xml version="1.0" encoding="utf-8"?>
<!-- Generator: Adobe Illustrator 26.5.0, SVG Export Plug-In . SVG Version: 6.00 Build 0)  -->
<svg version="1.0" id="katman_1" xmlns="http://www.w3.org/2000/svg" xmlns:xlink="http://www.w3.org/1999/xlink" x="0px" y="0px"
	 viewBox="0 0 442 341" style="enable-background:new 0 0 442 341;" xml:space="preserve">
<g>
	<path d="M221,258.87c-11.82,0-22.06-2.57-30.72-7.72c-8.63-5.13-15.53-12.39-19.91-20.96c-4.66-8.92-8.07-18.36-10.15-28.07
		c-2.21-10.54-3.28-21.25-3.21-31.99c0-8.5,0.55-16.63,1.67-24.4c1.11-7.76,3.17-15.65,6.17-23.66c3-8.01,6.86-14.95,11.56-20.84
		c4.9-6.03,11.23-10.94,18.51-14.35c7.64-3.68,16.32-5.51,26.09-5.51c11.82,0,22.06,2.57,30.72,7.72
		c8.63,5.13,15.53,12.39,19.91,20.96c4.63,8.83,8.01,18.18,10.15,28.07c2.13,9.88,3.21,20.55,3.21,31.99c0,8.5-0.55,16.63-1.67,24.4
		c-1.19,8.07-3.3,16-6.29,23.66c-3.09,8.01-6.93,14.95-11.56,20.84c-4.63,5.89-10.75,10.67-18.38,14.35S230.77,258.87,221,258.87z
		 M243.59,193.62c6.12-6.15,9.53-14.65,9.41-23.5c0-9.14-3.06-16.97-9.17-23.5c-6.12-6.52-13.73-9.78-22.83-9.78
		s-16.7,3.26-22.83,9.78c-6,6.21-9.31,14.69-9.17,23.5c0,9.14,3.06,16.97,9.17,23.5c6.12,6.52,13.73,9.78,22.83,9.78
		S237.63,200.14,243.59,193.62z M221,303.24c70.69,0,128-59.6,128-133.12C349,96.6,291.69,37,221,37C150.31,37,93,96.6,93,170.12
		C93,243.64,150.31,303.24,221,303.24z"/>
</g>
</svg>
